<?xml version="1.0" encoding="utf-8"?><!-- Uploaded to: SVG Repo, www.svgrepo.com, Generator: SVG Repo Mixer Tools -->
<svg width="800px" height="800px" viewBox="0 0 24 24" fill="none" xmlns="http://www.w3.org/2000/svg">
<path d="M6 15.5002H7M6 18.5002H7M17 18.5002H18M17 15.5002H18M10 22.0002V18.0002C10 16.8956 10.8954 16.0002 12 16.0002C13.1046 16.0002 14 16.8956 14 18.0002V22.0002M12 5H16.84C16.896 5 16.924 5 16.9454 4.9891C16.9642 4.97951 16.9795 4.96422 16.9891 4.9454C17 4.92401 17 4.89601 17 4.84V2.16C17 2.10399 17 2.07599 16.9891 2.0546C16.9795 2.03578 16.9642 2.02049 16.9454 2.0109C16.924 2 16.896 2 16.84 2H12.16C12.104 2 12.076 2 12.0546 2.0109C12.0358 2.02049 12.0205 2.03578 12.0109 2.0546C12 2.07599 12 2.10399 12 2.16V5ZM12 5V7.69092M12.03 12.25H12.0375M12 7.69092C12.1947 7.69092 12.3895 7.71935 12.5779 7.77623C13.0057 7.90536 13.3841 8.24585 14.1407 8.92681L17 11.5002L18.5761 11.8942C19.4428 12.1109 19.8761 12.2192 20.1988 12.4608C20.4834 12.674 20.7061 12.9592 20.8439 13.2871C21 13.6587 21 14.1053 21 14.9987V18.8002C21 19.9203 21 20.4804 20.782 20.9082C20.5903 21.2845 20.2843 21.5905 19.908 21.7822C19.4802 22.0002 18.9201 22.0002 17.8 22.0002H6.2C5.0799 22.0002 4.51984 22.0002 4.09202 21.7822C3.71569 21.5905 3.40973 21.2845 3.21799 20.9082C3 20.4804 3 19.9203 3 18.8002V14.9987C3 14.1053 3 13.6587 3.15613 13.2871C3.29388 12.9592 3.51657 12.674 3.80124 12.4608C4.12389 12.2192 4.55722 12.1109 5.42388 11.8942L7 11.5002L9.85931 8.92681C10.6159 8.24584 10.9943 7.90536 11.4221 7.77623C11.6105 7.71935 11.8053 7.69092 12 7.69092ZM12.03 13C11.6158 13 11.28 12.6642 11.28 12.25C11.28 11.8358 11.6158 11.5 12.03 11.5C12.4442 11.5 12.78 11.8358 12.78 12.25C12.78 12.6642 12.4442 13 12.03 13Z" stroke="#000000" stroke-width="2" stroke-linecap="round" stroke-linejoin="round"/>
</svg>