<?xml version="1.0" encoding="utf-8"?><!-- Uploaded to: SVG Repo, www.svgrepo.com, Generator: SVG Repo Mixer Tools -->
<svg width="800px" height="800px" viewBox="0 0 24 24" fill="none" xmlns="http://www.w3.org/2000/svg">
<path d="M8 3V6.18257M3 8H6.18257M3 12H6M3 16H6.18257M17.8174 8H21M18 12H21M17.8174 16H21M8 17.8174L8 21M12 3V6M12 18V21M16 3L16 6.18257M16 17.8174V21M10 14H10.01M14 14H14.01M14 10H14.01M10 10H10.01M10.8 18H13.2C14.8802 18 15.7202 18 16.362 17.673C16.9265 17.3854 17.3854 16.9265 17.673 16.362C18 15.7202 18 14.8802 18 13.2V10.8C18 9.11984 18 8.27976 17.673 7.63803C17.3854 7.07354 16.9265 6.6146 16.362 6.32698C15.7202 6 14.8802 6 13.2 6H10.8C9.11984 6 8.27976 6 7.63803 6.32698C7.07354 6.6146 6.6146 7.07354 6.32698 7.63803C6 8.27976 6 9.11984 6 10.8V13.2C6 14.8802 6 15.7202 6.32698 16.362C6.6146 16.9265 7.07354 17.3854 7.63803 17.673C8.27976 18 9.11984 18 10.8 18Z" stroke="#000000" stroke-width="2" stroke-linecap="round" stroke-linejoin="round"/>
</svg>